<svg id="logo" xmlns="http://www.w3.org/2000/svg" width="180" height="180" viewBox="0 0 180 180">
  <metadata><?xpacket begin="﻿" id="W5M0MpCehiHzreSzNTczkc9d"?>
<x:xmpmeta xmlns:x="adobe:ns:meta/" x:xmptk="Adobe XMP Core 5.6-c138 79.159824, 2016/09/14-01:09:01        ">
   <rdf:RDF xmlns:rdf="http://www.w3.org/1999/02/22-rdf-syntax-ns#">
      <rdf:Description rdf:about=""/>
   </rdf:RDF>
</x:xmpmeta>
                                                                                                    
                                                                                                    
                                                                                                    
                                                                                                    
                                                                                                    
                                                                                                    
                                                                                                    
                                                                                                    
                                                                                                    
                                                                                                    
                                                                                                    
                                                                                                    
                                                                                                    
                                                                                                    
                                                                                                    
                                                                                                    
                                                                                                    
                                                                                                    
                                                                                                    
                                                                                                    
                           
<?xpacket end="w"?></metadata>
<defs>
    <style>
      .cls-1, .cls-2 {
        fill: none;
        stroke: #000;
        stroke-width: 4px;
      }

      .cls-1 {
        stroke-dasharray: 16 8;
      }

      .cls-1, .cls-3, .cls-4, .cls-5, .cls-6, .cls-7 {
        fill-rule: evenodd;
      }

      .cls-2 {
        stroke-linecap: square;
      }

      .cls-3 {
        fill: #222;
      }

      .cls-4 {
        fill: #666;
      }

      .cls-10, .cls-5 {
        fill: #eb0000;
      }

      .cls-6 {
        opacity: 0.3;
      }

      .cls-7 {
        opacity: 0.5;
      }

      .cls-8 {
        font-size: 65.048px;
        font-family: "Havelock Titling";
      }

      .cls-9 {
        font-weight: 700;
      }
    </style>
  </defs>
  <g id="logo-2" data-name="logo">
    <path class="cls-1" d="M159.794,136.862L53.605,11.977"/>
    <path id="Shape_1_copy_3" data-name="Shape 1 copy 3" class="cls-1" d="M124.149,13.472L17.959,138.357"/>
    <path class="cls-1" d="M19.7,41.391h140.09"/>
    <circle id="cirlce" class="cls-2" cx="89.5" cy="89.5" r="85.5"/>
    <rect id="sqaure" class="cls-2" x="18.469" y="31.406" width="142.062" height="143.594"/>
    <path id="backbody" class="cls-3" d="M101.216,120.659a22.006,22.006,0,0,0,1.745,1.994c1.578,1.447,5.379,3.048,8.475,6.481s2.372,5.847,5.982,9.223,3.757,1.792,7.229,5.235c2.955,2.93,3.076,4.535,3.989,5.733s0.584,0.993,1.246,1.745,0.087,0.845.748,1.745,2.064,1.381,2.742,2.493a14.5,14.5,0,0,1,1.246,3.489c0.323,1.063.5,1.5,0.5,1.5a40.491,40.491,0,0,0,4.985-3.241c1.687-1.417,4.238-3.489,4.238-3.489s-3.752-2.774-4.737-3.49a64.7,64.7,0,0,1-5.982-4.986,28.125,28.125,0,0,1-4.487-5.234c-1.9-2.981-3.865-8.409-6.979-12.962-1.156-1.689-1.912-1.812-3.74-3.739a48.058,48.058,0,0,1-5.733-8.226c-0.732-1.575-2.375-5.644-3.49-7.478s-3.739-6.232-3.739-6.232Zm1.994-46.614s2.817-4.17,2.991-5.733c0,0,7.623-7.147,9.223-8.475s3-2.677,3.739-3.24,3.916-1.564,6.232-2.493a34.012,34.012,0,0,0,6.98-4.487,67.005,67.005,0,0,1,6.231-4.238c1.34-.758,2.742-1.5,2.742-1.5,2.63,0,5.437-1.9,6.731-3.49,0,0,1.753-.61,2.47-0.906s2.148-1.8.957-1.446a40.154,40.154,0,0,1-4.175,1.354s-0.611-.507.5-0.748a20.765,20.765,0,0,0,3.49-1.5c0.556-.253,1.461-1.5,1-1.5a39.742,39.742,0,0,0-4.237,1.5c-1.364.492-2.3,0.757-1.247,0a9.93,9.93,0,0,1,2-1.246c0.527-.219,2.385-1.224,3.24-1.5,1.5-.476,1.851-2.289-0.748-1.246a34.372,34.372,0,0,0-4.237,1.745,15.425,15.425,0,0,1-2,1,11.471,11.471,0,0,1,2.493-1.994,19.509,19.509,0,0,0,1.745-1.246c0.779-.548.52-1.635-1-0.748a32.056,32.056,0,0,1-3.988,1.994,19.356,19.356,0,0,1-2.244.748,4.567,4.567,0,0,0-2.742,1.745,10.644,10.644,0,0,0-1.745,2.991,17.471,17.471,0,0,1-.747,1.745s-0.973.507-2.742,1.246c-1.973.824-7.586,2.675-10.221,3.988a15.938,15.938,0,0,0-3.739,2.243c-0.906.7-2.211,2.111-2.492,2.243s-2.842,1.665-4.487,2.493a17.629,17.629,0,0,1-5.235,1.5,16.18,16.18,0,0,0-8.475,4.238C96.611,61.986,103.21,74.045,103.21,74.045ZM77.561,119.937s-1.829,2.131-2.5,2.741c-1.582,1.447-5.391,3.046-8.493,6.477s-2.377,5.843-6,9.217-3.765,1.791-7.244,5.231c-2.961,2.928-3.083,4.532-4,5.729s-0.586.992-1.249,1.744-0.088.844-.749,1.744-2.069,1.38-2.748,2.491a14.421,14.421,0,0,0-1.249,3.487c-0.324,1.062-.5,1.5-0.5,1.5a40.655,40.655,0,0,1-5-3.238c-1.69-1.417-4.247-3.488-4.247-3.488s3.76-2.772,4.746-3.487a64.755,64.755,0,0,0,6-4.982,28.169,28.169,0,0,0,4.5-5.232c1.909-2.978,3.874-8.4,6.995-12.953,1.157-1.688,1.916-1.811,3.747-3.737a47.9,47.9,0,0,0,5.746-8.22c0.733-1.574,2.381-5.64,3.5-7.473s5.492-9.967,5.492-9.967Zm-1-45.834s-2.823-4.168-3-5.729c0,0-7.639-7.143-9.243-8.47s-3.006-2.675-3.747-3.238-3.924-1.563-6.245-2.491a34.079,34.079,0,0,1-6.995-4.484,67.237,67.237,0,0,0-6.245-4.235c-1.342-.758-2.748-1.495-2.748-1.495-2.636,0-5.448-1.9-6.745-3.488a16.1,16.1,0,0,1-2.125-.378c-0.744-.223-2.411-1.58-1.19-1.351a24.678,24.678,0,0,0,4.064.732s0.612-.507-0.5-0.747-2.324-.877-3.5-1.246-1.464-1.495-1-1.495a29.107,29.107,0,0,1,4.247,1.246c1.366,0.492,2.307.757,1.249,0a9.957,9.957,0,0,0-2-1.245c-0.528-.219-2.391-1.223-3.247-1.495-1.5-.476-1.855-2.287.749-1.245a34.584,34.584,0,0,1,4.247,1.744,15.46,15.46,0,0,0,2,1A11.489,11.489,0,0,0,32.094,34a19.583,19.583,0,0,1-1.749-1.246c-0.781-.547-0.521-1.634,1-0.747a32.118,32.118,0,0,0,4,1.993,19.43,19.43,0,0,0,2.248.747,4.577,4.577,0,0,1,2.748,1.744,10.62,10.62,0,0,1,1.749,2.989,17.313,17.313,0,0,0,.749,1.744s0.975,0.507,2.748,1.245c1.977,0.824,7.6,2.674,10.242,3.986a15.943,15.943,0,0,1,3.747,2.242c0.908,0.7,2.216,2.11,2.5,2.242s2.848,1.664,4.5,2.491a17.709,17.709,0,0,0,5.246,1.495,16.232,16.232,0,0,1,8.493,4.235C83.173,62.052,76.56,74.1,76.56,74.1Z"/>
    <path id="back_details" data-name="back details" class="cls-4" d="M49.617,148.328a36.528,36.528,0,0,1,3.739-5.733c1.719-1.776,6.419-4.327,7.478-5.484s3.1-8.163,6.73-10.968,6.97-3.52,9.722-6.73l0.249,0.747a11.219,11.219,0,0,1-1.994,2.742c-0.965.784-5.993,3.825-6.73,4.736s-5.742,8.706-6.98,10.221-6.553,4.262-7.727,5.484S49.617,148.328,49.617,148.328Zm78.769,0a36.5,36.5,0,0,0-3.739-5.733c-1.719-1.776-6.419-4.327-7.478-5.484s-3.1-8.163-6.73-10.968-6.97-3.52-9.722-6.73l-0.249.747a11.219,11.219,0,0,0,1.994,2.742c0.965,0.784,5.993,3.825,6.73,4.736s5.743,8.706,6.98,10.221,6.553,4.262,7.727,5.484S128.386,148.328,128.386,148.328ZM40.394,41.889a17.262,17.262,0,0,0-1.246-1.5c-0.423-.4-1.745-1.637-1.745-2.742v-1s-1.994-.483-1.994-2.243c0.657,1.134,1.544,1.994,2.243,1.994,0.35,0,.249,1.5.249,1.5A3.273,3.273,0,0,0,39.147,39.9,4.744,4.744,0,0,1,40.394,41.889Zm17.2,7.727a4.455,4.455,0,0,1-3.739-1.745A10.552,10.552,0,0,0,57.593,49.617Zm0.5,3.988a3.744,3.744,0,0,0,1.5,1.5c1.031,0.544,1.326.441,2.243,1s1.246,0.748,1.246.748a7.167,7.167,0,0,0-1.246-1c-0.657-.393-1.138-0.453-1.994-1S58.092,53.605,58.092,53.605ZM69.309,55.35l-2.243-1.994,1.5,0.5Zm-8.724,1.5s10,5.237,16.2,12.214l-0.748,4.487L72.3,68.312Zm78.77-15.206a17.188,17.188,0,0,1,1.247-1.5c0.423-.4,1.744-1.388,1.744-2.493v-1a2.059,2.059,0,0,0,1.745-2.243c-0.656,1.134-1.3,1.994-1.994,1.994-0.35,0-.249,1.5-0.249,1.5,0,0.732-.641,1.138-1.246,1.745A4.744,4.744,0,0,0,139.354,41.64Zm-17.2,7.977a4.455,4.455,0,0,0,3.739-1.745A10.558,10.558,0,0,1,122.155,49.617Zm-0.5,3.988a3.746,3.746,0,0,1-1.5,1.5c-1.031.544-1.325,0.441-2.243,1s-1.246.748-1.246,0.748a7.169,7.169,0,0,1,1.246-1c0.657-.393,1.138-0.453,1.994-1S121.656,53.605,121.656,53.605ZM110.439,55.35l2.243-1.994-1.5.5Zm8.475,1.5s-10,5.237-16.2,12.214l0.748,4.487,3.739-5.235ZM61.582,122.653a3.363,3.363,0,0,0-.748,1.745,2.735,2.735,0,0,0,4.985,1,3.422,3.422,0,0,1-2.243,1,2.9,2.9,0,0,1-2.493-1.994A6.9,6.9,0,0,1,61.582,122.653Zm55.089,0a3.365,3.365,0,0,1,.747,1.745,2.735,2.735,0,0,1-4.985,1,3.421,3.421,0,0,0,2.243,1,2.9,2.9,0,0,0,2.493-1.994A6.9,6.9,0,0,0,116.671,122.653ZM142.6,154.809l-1.247-1,1,1.246Zm-1.5,1.5-1.246-1,1,1.246Zm-1.5,1.246-1.246-1,1,1.246Zm-1.744,1.5-1.247-1,1,1.246ZM35.907,154.809l1.246-1-1,1.246Zm1.5,1.5,1.246-1-1,1.246Zm1.5,1.246,1.246-1-1,1.246Zm1.745,1.5,1.246-1-1,1.246Z"/>
    <path id="front_body" data-name="front body" class="cls-5" d="M85.505,50.364v5.484a5.046,5.046,0,0,1-2.247,1.745,18.009,18.009,0,0,0-4.744,1.745,7.909,7.909,0,0,0-3.745-1c-3.326,0-6.449,2.493-7.989,2.493H56.046s-1.349-1-5.492-1-9.368,1.745-13.731,1.745a5.574,5.574,0,0,1-2-.249,6.564,6.564,0,0,0-3.994-1.745c-0.936,0-2.338-.3-4.743-0.249-0.553.012-.25,0.5-0.25,0.5h-0.5a32.683,32.683,0,0,1-3.994-.249c-2.343-.26-1.194.776,0,1a15.131,15.131,0,0,0,2.746.748c1.581,0.13,1.423.441,0.749,0.5a26.754,26.754,0,0,1-3.994,0c-2.466-.164-1.9,1.145-0.5,1.246,1.024,0.074,1.305.134,3.246,0.249s1.586,0.47.25,0.5c-0.94.02-2.144,0.25-3.745,0.249-1.989,0-1.716,1.09,0,1,0.42-.023.711,0,3,0,5.276,0-1.71.331-3,.5-0.678.088-.687,1.079,0.5,1,0.5-.035,2.011-0.249,3.246-0.249,2.432,0,4.037.5,5.992,0.5,3.609,0,4.494-1.5,4.494-1.5s-0.064-.307,3.5.249,9.054,1.994,12.732,1.994,2.737-.748,6.491-0.748c5.4,0,12.953,1.994,15.229,1.994a24.7,24.7,0,0,0,3.745-.249,29.968,29.968,0,0,0-.25,2.991c0,6.381,3.5,6.075,3.5,12.464,0,4.379-1.625,6.387-3.084,8.954A22.769,22.769,0,0,0,73.022,105.2c0,8.479,5.742,15.223,5.742,21.936,0,3.242-1,4.962-1,10.469,0,7.154,4.244,10.809,4.244,19.942,0,3.338-1,4.289-1,5.983a1.216,1.216,0,0,0-.5,1,1.7,1.7,0,0,0,.25,1s-0.6,2.105-1.248,3.988-1.5,3.739-1.5,3.739,1.665,0.3,2.746.5a55.7,55.7,0,0,0,6.741.5c0.622,0,1.748.031,1.748-.748s-0.5-.875-0.5-1.745-0.691-2.834-.749-3.988a1.808,1.808,0,0,0-.25-1.246,3.024,3.024,0,0,0,.25-1.247c0-1.29-.749-1.187-0.749-2.243s0.076-6.179.25-9.722,1.748-11.935,1.748-15.454-0.749-7.129-.749-9.473,0.5-1.077.5-3.489-0.5-2.894-.5-4.487,0.5-2.9.5-6.481-0.5-6.568-.5-7.479,0.344-1.5,1-1.5a1.357,1.357,0,0,1,1.246,1.5c0,0.911-.5,3.9-0.5,7.479s0.5,4.888.5,6.481-0.5,2.074-.5,4.487,0.5,1.146.5,3.489S90,134.339,90,137.859s1.571,11.911,1.745,15.454,0.249,8.666.249,9.722-0.748.953-.748,2.243a3.028,3.028,0,0,0,.249,1.247,1.81,1.81,0,0,0-.249,1.246c-0.058,1.154-.748,3.119-0.748,3.988s-0.5.967-.5,1.745,1.124,0.748,1.745.748a55.529,55.529,0,0,0,6.73-.5c1.079-.2,2.742-0.5,2.742-0.5s-0.844-1.856-1.5-3.739-1.246-3.988-1.246-3.988a1.7,1.7,0,0,0,.249-1,1.217,1.217,0,0,0-.5-1c0-1.694-1-2.645-1-5.983,0-9.133,4.238-12.788,4.238-19.942,0-5.507-1-7.227-1-10.469,0-6.713,5.733-13.457,5.733-21.936a22.8,22.8,0,0,0-3.152-12.234c-1.457-2.567-3.08-4.575-3.08-8.954,0-6.388,3.49-6.082,3.49-12.464,0-1.113-.249-2.991-0.249-2.991a24.619,24.619,0,0,0,3.739.249c2.273,0,9.815-1.994,15.206-1.994,3.748,0,2.807.748,6.481,0.748s9.159-1.438,12.712-1.994,3.49-.249,3.49-0.249,0.883,1.5,4.487,1.5c1.952,0,3.555-.5,5.983-0.5,0.833,0,2.738.215,3.24,0.249,1.185,0.082,1.176-.909.5-1-1.284-.167-8.26-0.5-2.992-0.5,2.282,0,2.572-.023,2.992,0,1.713,0.093,1.986-1,0-1-1.6,0-2.8-.229-3.739-0.249-1.335-.029-1.688-0.383.249-0.5s2.218-.175,3.24-0.249c1.4-.1,1.964-1.41-0.5-1.246a26.685,26.685,0,0,1-3.989,0c-0.673-.058-0.83-0.368.748-0.5a15.079,15.079,0,0,0,2.742-.748c1.192-.221,2.339-1.257,0-1a32.578,32.578,0,0,1-3.988.249h-0.5s0.3-.487-0.249-0.5c-2.4-.05-3.8.249-4.736,0.249a6.55,6.55,0,0,0-3.988,1.745,5.564,5.564,0,0,1-2,.249c-4.356,0-9.572-1.745-13.709-1.745s-5.484,1-5.484,1H112.433c-1.538,0-4.656-2.493-7.977-2.493a7.891,7.891,0,0,0-3.739,1,17.961,17.961,0,0,0-4.736-1.745,5.04,5.04,0,0,1-2.243-1.745V50.364H85.505Z"/>
    <path id="shadow" class="cls-6" d="M85.761,61.831s-1.994-1-1.994-1.745c0-1.877,8.673-5.2,9.971-6.73V50.364H84.515V55.35l-4.736,2.742-1.745,1.246S80.63,61.831,85.761,61.831Zm3.614,43.124v2.493l-0.623,13.211s0.374,3.32.374,4.487-0.374,2.155-.374,3.988,0.623,6.082.623,8.475-0.623,9.223-.623,9.223h-0.5s-0.248-11.1-.5-11.715a4.22,4.22,0,0,1-2.493.747c-1.562,0-5.733-1.994-5.733-1.994a9.707,9.707,0,0,0-.249,1.994c0,3.388,1.994,9.975,1.994,14.707L77.286,142.1s0.249-4.712.249-6.481,1-6.862,1-8.226c0-3.11-5.733-14.131-5.733-20.939C72.8,91.56,78.034,89,78.034,89l0.748-4.985-2.493-7.478-1.5-3.49,1-.748s2.951,3.241,6.232,3.241,3.24-.748,3.24-0.748v0.249c-1.281,1.673-4.238,1.916-4.238,4.985s0.249,3.711.249,5.733-1,4.261-1,6.481,0.2,2.984,2.243,4.238,4.06,3.49,6.855,3.49h0.374c2.774,0,4.776-2.236,6.8-3.49s2.227-2.017,2.227-4.238-0.99-4.458-.99-6.481,0.247-2.664.247-5.733-2.934-3.313-4.206-4.985V74.793s-0.04.748,3.216,0.748,6.185-3.241,6.185-3.241l0.99,0.748-1.484,3.49-2.474,7.478L101.006,89S106.2,91.56,106.2,106.45c0,6.808-5.69,17.829-5.69,20.939,0,1.364.99,6.457,0.99,8.226s0.247,6.481.247,6.481l-3.958,8.475c0-4.732,1.979-11.319,1.979-14.707a9.777,9.777,0,0,0-.247-1.994s-4.14,1.994-5.69,1.994a4.168,4.168,0,0,1-2.474-.747c-0.249.61-.495,11.715-0.495,11.715H90.368s-0.618-6.829-.618-9.223,0.618-6.641.618-8.475S90,126.313,90,125.146s0.371-4.487.371-4.487l-0.618-13.211v-2.493H89.375ZM79.031,94.984c-0.368.2-4.736,2.551-4.736,9.472,0,9.7,5.983,13.979,5.983,21.438,0,3.115,1.291,5.733,3.24,5.733s3.123-1.929,3.49-5.484,1-6.215,1-8.475-2.991-7.478-2.991-7.478c1.207,0.719,1.209,1.744,1.745,1.744s0.748-1.53.748-2.742-0.249-4.117-.249-4.985C84.473,102.291,79.761,96.712,79.031,94.984Zm22.185,0.748c0.365,0.2,3.5,1.8,3.5,8.724,0,9.7-5.938,13.979-5.938,21.438,0,3.115-1.282,5.733-3.216,5.733s-3.1-1.929-3.464-5.484-0.99-6.215-.99-8.475,2.969-7.478,2.969-7.478c-1.2.719-1.2,1.744-1.732,1.744s-0.742-1.53-.742-2.742,0.247-4.117.247-4.985C94.614,102.291,100.491,97.46,101.216,95.732ZM76.787,67.315c0-.6-2.488-4.736-7.727-4.736-1.838,0-2.3,1-3.988,1s-4.217-.249-6.481-0.249-4.055.249-5.484,0.249-15.181,1.08-17.449,1.745c0,0,9.923,2.991,15.206,2.991s5.028-1.246,6.73-1.246,13.257,2.243,15.455,2.243S76.787,68.484,76.787,67.315Z"/>
    <path id="front_details" data-name="front details" class="cls-7" d="M82.271,80.776a7.011,7.011,0,0,0,2.243-1.745,6.444,6.444,0,0,0-1.246.748C82.827,80.16,82.271,80.776,82.271,80.776Zm3.988,17.7s-4.075-1.926-4.736-4.487A17.2,17.2,0,0,0,86.26,98.474ZM88,63.077l-1-1a15.255,15.255,0,0,1-6.73-1.5,28.5,28.5,0,0,0,6.98,1.246ZM85.512,75.042a6.206,6.206,0,0,1-4.986,2.243c-3.406,0-4.985-2.263-4.985-5.733s1.246-4.487,1.246-4.487a9.748,9.748,0,0,0-1,4.487c0.1,1.672.563,5.235,4.736,5.235A9.547,9.547,0,0,0,85.512,75.042Zm-4.986,53.095s0.188,3.49,2.991,3.49,2.991-2.991,2.991-2.991-1.276,2.742-2.991,2.742S80.526,128.137,80.526,128.137Zm4.986-25.924a6.947,6.947,0,0,0,3.24,2.742h1v-0.249H89A25.859,25.859,0,0,1,85.512,102.213ZM55.35,65.071s-0.149-2.32,1.994-2.493A4.255,4.255,0,0,0,55.35,65.071ZM33.4,63.156s-1.47.171-1.849,0.171A2.657,2.657,0,0,1,29.7,61.883a2.113,2.113,0,0,0-2.034-1.194,1.374,1.374,0,0,1-1.479-.853,1.489,1.489,0,0,0,1.294.512,2.509,2.509,0,0,1,2.589,1.364c0.5,0.763.827,1.123,1.479,1.1S33.57,62.652,33.4,63.156Zm56.1,4.907a2.656,2.656,0,0,1,0,2.25A2.656,2.656,0,0,1,89.5,68.063Zm0,8.219a60.033,60.033,0,0,1,.25,7.734,60.033,60.033,0,0,1-.25,7.734,60.033,60.033,0,0,1-.25-7.734A60.033,60.033,0,0,1,89.5,76.281Zm7.478,4.494a7.011,7.011,0,0,1-2.243-1.745,6.441,6.441,0,0,1,1.246.748C96.422,80.16,96.978,80.776,96.978,80.776Zm-3.988,17.7s4.075-1.926,4.736-4.487A17.2,17.2,0,0,1,92.99,98.474Zm-1.745-35.4,1-1a15.256,15.256,0,0,0,6.73-1.5,28.5,28.5,0,0,1-6.98,1.246Zm2.493,11.965a6.205,6.205,0,0,0,4.985,2.243c3.406,0,4.985-2.263,4.985-5.733s-1.246-4.487-1.246-4.487a9.746,9.746,0,0,1,1,4.487c-0.1,1.672-.563,5.235-4.736,5.235A9.547,9.547,0,0,1,93.738,75.042Zm4.985,53.095s-0.188,3.49-2.991,3.49-2.991-2.991-2.991-2.991,1.276,2.742,2.991,2.742S98.723,128.137,98.723,128.137Zm-4.985-25.924a6.947,6.947,0,0,1-3.24,2.742h-1v-0.249h0.748A25.859,25.859,0,0,0,93.738,102.213ZM123.9,65.071s0.149-2.32-1.994-2.493A4.254,4.254,0,0,1,123.9,65.071Zm21.954-1.915s1.47,0.171,1.849.171a2.659,2.659,0,0,0,1.849-1.443,2.112,2.112,0,0,1,2.034-1.194,1.374,1.374,0,0,0,1.479-.853,1.488,1.488,0,0,1-1.294.512,2.509,2.509,0,0,0-2.589,1.364c-0.5.763-.827,1.123-1.479,1.1S145.68,62.652,145.853,63.156Z"/>
    <path id="feet_details" data-name="feet details" class="cls-6" d="M79.28,173.5l0.5-1.246V173.5h-0.5Zm1.994,0.25,0.748-1.5-0.249,1.5h-0.5ZM83.518,174l0.5-1.745V174h-0.5Zm1.994-1.994L85.761,174h0.5Zm1.994-1.994,1.246,1.5A1.56,1.56,0,0,0,87.506,170.015Zm12.713,3.489-0.5-1.246V173.5h0.5Zm-1.994.25-0.748-1.5,0.249,1.5h0.5ZM95.981,174l-0.5-1.745V174h0.5Zm-1.994-1.994L93.738,174h-0.5Zm-1.994-1.994-1.246,1.5A1.56,1.56,0,0,1,91.993,170.015Z"/>
    <path id="head" class="cls-5" d="M97.477,46.127a1.68,1.68,0,0,1-1.235.97c0,0.009-.006.018-0.011,0.027a19.344,19.344,0,0,1-2.742,3.988c-1.2,1.3-2.081,2.991-4.113,2.991s-2.745-1.694-3.921-2.991a19.361,19.361,0,0,1-2.7-3.988h0a1.666,1.666,0,0,1-1.483-1,5.32,5.32,0,0,1-.748-2.243,1.09,1.09,0,0,1,.748-1.246c0.483,0,.426.568,1,0.748a0.52,0.52,0,0,1,.222.335c-0.126-1.345-.471-2.779-0.471-3.825,0-1.088.546-7.229,7.353-7.229s7.6,6.14,7.6,7.229c0,0.95-.285,2.219-0.435,3.453,0.489-.2.474-0.711,0.934-0.711a1.09,1.09,0,0,1,.748,1.246A5.32,5.32,0,0,1,97.477,46.127Z"/>
  </g>
  <text id="getMoeFit" class="cls-8" transform="translate(196.088 128.425) scale(1.144 1.14)">get<tspan class="cls-9">Moe<tspan class="cls-10">Fit</tspan></tspan></text>
</svg>
